:SAMPLES-PER-SECOND 30
:FRAME-RANGE 1-1086
:FULLY-SPECIFIED
:DEGREES
476
root  -40.3866 38.4146 90.3206 -0.63324 43.3599 -3.03564
RightUpLeg  -3.62019 -7.35168 -2.20767
RightLeg  16.3861 3.08004 2.27321
RightFoot  -13.5956 0.0126984 5.33115
RightToes  1.21801e-010 1.2921e-014 -6.02303e-014
Spine  -7.09746 0.793635 11.6182
Spine1  11.0287 0.630519 -1.40912
HEad  0.267352 44.3328 -16.0711
LeftShoulder1  -0.338497 4.50012 -22.1312
LeftArm  -2.28164 19.6508 -40.4025
LeftForeArm  9.23304 -64.9776 -24.3261
LeftHand  0.0898886 2.4239 -4.14179
RightShoulder  1.58235 2.74181 19.7773
RightArm  21.2063 11.2015 39.0792
RightForeArm  8.31575 62.8746 21.9605
RightHand  0.101145 -9.22589 -4.3718
LeftUpLeg  -25.8561 6.32781 -0.621445
LeftLeg  40.3348 4.02686 4.0312
LeftFoot  -3.8874 0.214491 -2.93427
LeftToes  3.79492e-011 -8.60219e-011 1.56273e-011
477
root  -39.6573 38.4037 91.095 -0.0939331 44.7472 -2.54901
RightUpLeg  -1.42964 -7.41002 -2.6592
RightLeg  15.4691 1.80608 1.82297
RightFoot  -14.6935 0.0626004 5.54247
RightToes  1.21801e-010 1.2921e-014 -6.02303e-014
Spine  -7.45753 1.10233 11.1465
Spine1  11.1347 0.940754 -1.85294
HEad  0.105231 44.1963 -15.8682
LeftShoulder1  -0.444202 4.86212 -22.3487
LeftArm  -3.04226 20.4727 -39.6269
LeftForeArm  9.85345 -65.5952 -25.0733
LeftHand  0.0880854 2.36934 -3.92828
RightShoulder  1.65 2.97483 19.8999
RightArm  21.5988 12.1635 40.6674
RightForeArm  7.48395 61.8462 20.9853
RightHand  0.10306 -9.10836 -4.54405
LeftUpLeg  -26.2061 6.49469 -1.37108
LeftLeg  30.9868 6.06807 4.26064
LeftFoot  -2.53724 0.2304 -2.795
LeftToes  3.79492e-011 -8.60219e-011 1.56273e-011
478
root  -38.8827 38.401 91.8696 0.48114 45.6358 -2.05414
RightUpLeg  0.905295 -7.19319 -3.02489
RightLeg  14.1467 0.842405 1.34979
RightFoot  -15.3899 0.0952455 5.6447
RightToes  1.21801e-010 1.2921e-014 -6.02303e-014
Spine  -7.89674 1.58548 10.5852
Spine1  11.3921 1.48768 -2.37667
HEad  -0.0487387 44.1843 -15.6635
LeftShoulder1  -0.540799 5.19465 -22.4443
LeftArm  -3.99479 21.5223 -38.9507
LeftForeArm  10.697 -66.3345 -26.0167
LeftHand  0.0893348 2.52507 -4.10645
RightShoulder  1.71321 3.17482 20.0838
RightArm  22.0002 12.8716 42.1086
RightForeArm  7.3573 61.1355 20.3091
RightHand  0.100292 -9.0602 -4.42699
LeftUpLeg  -25.584 6.04752 -1.61402
LeftLeg  20.4437 9.05818 4.0362
LeftFoot  -0.935368 0.197264 -2.10491
LeftToes  3.79492e-011 -8.60219e-011 1.56273e-011
479
root  -38.0231 38.3271 92.6256 0.764648 46.8174 -1.92633
RightUpLeg  3.36333 -6.90412 -3.09436
RightLeg  12.8578 -0.68472 0.835404
RightFoot  -16.124 0.12935 5.7124
RightToes  1.21801e-010 1.2921e-014 -6.02303e-014
Spine  -8.56542 1.88717 10.1824
Spine1  11.9888 1.83889 -2.78842
HEad  -0.407287 44.09 -15.515
LeftShoulder1  -0.628159 5.49049 -22.5721
LeftArm  -4.84413 22.4654 -38.1033
LeftForeArm  11.4291 -67.0416 -26.9999
LeftHand  0.0939236 2.43266 -4.31463
RightShoulder  1.78999 3.44198 20.1898
RightArm  22.4273 13.4568 43.338
RightForeArm  7.17735 60.7319 19.9527
RightHand  0.0996794 -9.07895 -4.45765
LeftUpLeg  -24.5898 1.53982 -0.117451
LeftLeg  10.3345 15.6296 3.38951
LeftFoot  0.0309872 0.149285 -1.50163
LeftToes  3.79492e-011 -8.60219e-011 1.56273e-011
480
root  -37.0824 38.207 93.3827 0.956421 47.8651 -1.97369
RightUpLeg  5.81154 -6.70812 -3.12559
RightLeg  11.7292 -1.92001 0.464903
RightFoot  -16.9013 0.17704 6.00247
RightToes  1.21801e-010 1.2921e-014 -6.02303e-014
Spine  -9.44051 2.12064 9.91071
Spine1  12.7166 2.19177 -3.38222
HEad  -0.923631 44.2924 -15.1835
LeftShoulder1  -0.717167 5.79845 -22.5896
LeftArm  -5.53736 23.5555 -37.0793
LeftForeArm  12.1186 -67.8392 -28.2251
LeftHand  0.0958902 2.42538 -4.33079
RightShoulder  1.84201 3.61707 20.2813
RightArm  23.1239 14.0611 45.0588
RightForeArm  6.79204 59.9781 19.3205
RightHand  0.100931 -9.0537 -4.50219
LeftUpLeg  -23.7637 -0.579004 0.359127
LeftLeg  1.22037 19.8629 2.64627
LeftFoot  -0.00742905 -0.0336842 0.339989
LeftToes  3.79492e-011 -8.60219e-011 1.56273e-011
481
root  -36.0487 37.9972 94.1296 0.671448 48.8376 -2.39075
RightUpLeg  8.218 -6.90396 -3.19111
RightLeg  11.4377 -2.33526 0.336519
RightFoot  -17.9196 0.263983 6.70279
RightToes  1.21801e-010 1.2921e-014 -6.02303e-014
Spine  -9.85886 2.30579 9.83
Spine1  13.0556 2.49893 -3.88
HEad  -1.26987 44.2664 -14.8481
LeftShoulder1  -0.794502 6.07851 -22.4636
LeftArm  -5.76672 24.6364 -35.8277
LeftForeArm  12.4423 -68.537 -29.4375
LeftHand  0.0978365 2.37318 -4.30237
RightShoulder  1.89128 3.7434 20.5237
RightArm  23.8547 14.3869 46.4332
RightForeArm  6.64114 59.7394 19.1305
RightHand  0.107835 -9.07084 -4.90758
LeftUpLeg  -23.4461 -1.32543 0.63398
LeftLeg  -4.44407 22.569 1.86699
LeftFoot  -2.29477 0.0521797 -0.484789
LeftToes  3.79492e-011 -8.60219e-011 1.56273e-011
482
root  -34.9128 37.715 94.874 -0.032959 49.9642 -3.08923
RightUpLeg  10.3452 -7.39344 -3.28306
RightLeg  12.5031 -2.18766 0.182619
RightFoot  -19.0158 0.411511 8.04899
RightToes  1.21801e-010 1.2921e-014 -6.02303e-014
Spine  -10.07 2.43867 9.87794
Spine1  13.4503 2.71556 -4.17916
HEad  -2.74629 43.718 -15.1801
LeftShoulder1  -0.840842 6.27415 -22.1155
LeftArm  -6.41501 25.4903 -35.1029
LeftForeArm  12.6768 -69.0126 -30.3229
LeftHand  0.101078 2.3123 -4.39458
RightShoulder  1.92751 3.82961 20.7233
RightArm  24.2373 14.559 47.8335
RightForeArm  7.11716 59.5697 18.9382
RightHand  0.105302 -9.00932 -4.75034
LeftUpLeg  -24.2536 -0.522956 0.825116
LeftLeg  -3.04564 23.876 1.63774
LeftFoot  -5.42238 0.154473 -2.35787
LeftToes  3.79492e-011 -8.60219e-011 1.56273e-011
